<?xml version="1.0" encoding="UTF-8" standalone="no"?>
<!-- Created with Inkscape (http://www.inkscape.org/) -->

<svg
   xmlns:dc="http://purl.org/dc/elements/1.1/"
   xmlns:cc="http://creativecommons.org/ns#"
   xmlns:rdf="http://www.w3.org/1999/02/22-rdf-syntax-ns#"
   xmlns:svg="http://www.w3.org/2000/svg"
   xmlns="http://www.w3.org/2000/svg"
   xmlns:sodipodi="http://sodipodi.sourceforge.net/DTD/sodipodi-0.dtd"
   xmlns:inkscape="http://www.inkscape.org/namespaces/inkscape"
   version="1.1"
   id="svg2"
   xml:space="preserve"
   width="48"
   height="48"
   viewBox="0 0 48 48"
   sodipodi:docname="Boris Blagojević.ai.svg"
   inkscape:version="0.92.5 (2060ec1f9f, 2020-04-08)"><metadata
     id="metadata8"><rdf:RDF><cc:Work
         rdf:about=""><dc:format>image/svg+xml</dc:format><dc:type
           rdf:resource="http://purl.org/dc/dcmitype/StillImage" /><dc:title></dc:title></cc:Work></rdf:RDF></metadata><defs
     id="defs6" /><sodipodi:namedview
     pagecolor="#ffffff"
     bordercolor="#666666"
     borderopacity="1"
     objecttolerance="10"
     gridtolerance="10"
     guidetolerance="10"
     inkscape:pageopacity="0"
     inkscape:pageshadow="2"
     inkscape:window-width="1848"
     inkscape:window-height="1016"
     id="namedview4"
     showgrid="false"
     inkscape:zoom="5.12"
     inkscape:cx="12.200469"
     inkscape:cy="-3.4510933"
     inkscape:window-x="72"
     inkscape:window-y="27"
     inkscape:window-maximized="1"
     inkscape:current-layer="g10" /><g
     id="g10"
     inkscape:groupmode="layer"
     inkscape:label="Boris Blagojević"
     transform="matrix(1.3333333,0,0,-1.3333333,0,48)"><g
       id="g14"
       transform="matrix(1,0,0,1.0182334,93.127125,-40.277209)" /><g
       id="g1102"
       transform="matrix(0.14757004,0,0,0.12731776,-30.196589,-37.596855)"><g
         transform="matrix(1,0,0,1.0182334,428.99589,486.05912)"
         id="g22"><path
           inkscape:connector-curvature="0"
           id="path24"
           style="fill:#ed1c24;fill-opacity:1;fill-rule:nonzero;stroke:none"
           d="m 0,0 c 0,-35.41 -28.879,-64.115 -64.504,-64.115 -35.625,0 -64.504,28.705 -64.504,64.115 0,35.411 28.879,64.116 64.504,64.116 C -28.879,64.116 0,35.411 0,0" /></g><g
         style="fill:#001c24;fill-opacity:1;stroke:#000024;stroke-opacity:1"
         transform="matrix(1,0,0,1.0182334,428.99589,486.05912)"
         id="g26"><path
           inkscape:connector-curvature="0"
           id="path28"
           style="fill:#001c24;fill-opacity:1;stroke:#000024;stroke-width:1;stroke-linecap:butt;stroke-linejoin:miter;stroke-miterlimit:10;stroke-dasharray:none;stroke-opacity:1"
           d="m 0,0 c 0,-35.41 -28.879,-64.115 -64.504,-64.115 -35.625,0 -64.504,28.705 -64.504,64.115 0,35.411 28.879,64.116 64.504,64.116 C -28.879,64.116 0,35.411 0,0 Z" /></g><g
         style="fill:#001c24;fill-opacity:1;stroke:#000024;stroke-opacity:1"
         transform="matrix(1,0,0,1.0182334,428.99589,396.01308)"
         id="g30"><path
           inkscape:connector-curvature="0"
           id="path32"
           style="fill:#001c24;fill-opacity:1;fill-rule:nonzero;stroke:#000024;stroke-opacity:1"
           d="m 0,0 c 0,-35.41 -28.879,-64.117 -64.504,-64.117 -35.625,0 -64.504,28.707 -64.504,64.117 0,35.41 28.879,64.116 64.504,64.116 C -28.879,64.116 0,35.41 0,0" /></g><g
         style="stroke:#000024;stroke-opacity:1"
         transform="matrix(1,0,0,1.0182334,428.99589,396.01308)"
         id="g34"><path
           inkscape:connector-curvature="0"
           id="path36"
           style="fill:none;stroke:#000024;stroke-width:1;stroke-linecap:butt;stroke-linejoin:miter;stroke-miterlimit:10;stroke-dasharray:none;stroke-opacity:1"
           d="m 0,0 c 0,-35.41 -28.879,-64.117 -64.504,-64.117 -35.625,0 -64.504,28.707 -64.504,64.117 0,35.41 28.879,64.116 64.504,64.116 C -28.879,64.116 0,35.41 0,0 Z" /></g><path
         inkscape:connector-curvature="0"
         id="path38"
         style="fill:#ffffff;fill-opacity:1;fill-rule:nonzero;stroke:#ffffff;stroke-width:1.00907552;stroke-linecap:butt;stroke-linejoin:miter;stroke-miterlimit:10;stroke-dasharray:none;stroke-opacity:1"
         d="m 380.74809,461.29765 h -64.85 v 62.13159 h 64.85 z" /><g
         transform="matrix(1,0,0,1.0182334,397.1112,492.36443)"
         id="g40"><path
           inkscape:connector-curvature="0"
           id="path42"
           style="fill:#ffffff;fill-opacity:1;fill-rule:nonzero;stroke:none"
           d="m 0,0 c 0,-16.852 -7.326,-30.51 -16.363,-30.51 -9.037,0 -16.364,13.658 -16.364,30.51 0,16.851 7.327,30.509 16.364,30.509 C -7.326,30.509 0,16.851 0,0" /></g><g
         transform="matrix(1,0,0,1.0182334,397.1112,492.36443)"
         id="g44"><path
           inkscape:connector-curvature="0"
           id="path46"
           style="fill:none;stroke:#ffffff;stroke-width:1;stroke-linecap:butt;stroke-linejoin:miter;stroke-miterlimit:10;stroke-dasharray:none;stroke-opacity:1"
           d="m 0,0 c 0,-16.852 -7.326,-30.51 -16.363,-30.51 -9.037,0 -16.364,13.658 -16.364,30.51 0,16.851 7.327,30.509 16.364,30.509 C -7.326,30.509 0,16.851 0,0 Z" /></g><path
         inkscape:connector-curvature="0"
         id="path48"
         style="fill:#ffffff;fill-opacity:1;fill-rule:nonzero;stroke:#ffffff;stroke-width:1.00907552;stroke-linecap:butt;stroke-linejoin:miter;stroke-miterlimit:10;stroke-dasharray:none;stroke-opacity:1"
         d="m 380.74609,358.64343 h -64.848 v 62.13159 h 64.848 z" /><g
         transform="matrix(1,0,0,1.0182334,397.1112,389.70879)"
         id="g50"><path
           inkscape:connector-curvature="0"
           id="path52"
           style="fill:#ffffff;fill-opacity:1;fill-rule:nonzero;stroke:none"
           d="m 0,0 c 0,-16.852 -7.326,-30.509 -16.365,-30.509 -9.035,0 -16.364,13.657 -16.364,30.509 0,16.852 7.329,30.51 16.364,30.51 C -7.326,30.51 0,16.852 0,0" /></g><g
         transform="matrix(1,0,0,1.0182334,397.1112,389.70879)"
         id="g54"><path
           inkscape:connector-curvature="0"
           id="path56"
           style="fill:none;stroke:#ffffff;stroke-width:1;stroke-linecap:butt;stroke-linejoin:miter;stroke-miterlimit:10;stroke-dasharray:none;stroke-opacity:1"
           d="m 0,0 c 0,-16.852 -7.326,-30.509 -16.365,-30.509 -9.035,0 -16.364,13.657 -16.364,30.509 0,16.852 7.329,30.51 16.364,30.51 C -7.326,30.51 0,16.852 0,0 Z" /></g><path
         inkscape:connector-curvature="0"
         id="path58"
         style="fill:#001c24;fill-opacity:1;fill-rule:nonzero;stroke:#000024;stroke-width:1.00874996;stroke-linecap:butt;stroke-linejoin:miter;stroke-miterlimit:10;stroke-dasharray:none;stroke-opacity:1"
         d="m 365.26909,330.72755 h -154.736 v 220.61757 h 154.736 z" /><g
         style="fill:#001c24;fill-opacity:1"
         transform="matrix(1,0,0,1.0182334,280.4959,457.11421)"
         id="g60"><path
           inkscape:connector-curvature="0"
           id="path62"
           style="fill:#001c24;fill-opacity:1;fill-rule:nonzero;stroke:none"
           d="m 148.5,28.426602 c 0,-35.4099996 -28.879,-64.115 -64.503996,-64.115 -35.625,0 -64.504,28.7050004 -64.504,64.115 0,35.411 28.879,64.116 64.504,64.116 35.624996,0 64.503996,-28.705 64.503996,-64.116" /></g><path
         d="m 446.30279,395.03635 c 0,-36.05565 -28.879,-65.28607 -64.504,-65.28607 -35.625,0 -64.504,29.23042 -64.504,65.28607 0,36.05564 28.879,65.28505 64.504,65.28505 35.625,0 64.504,-29.22941 64.504,-65.28505"
         style="fill:#001c24;fill-opacity:1;fill-rule:nonzero;stroke:none;stroke-width:1.00907552"
         id="path70"
         inkscape:connector-curvature="0" /><path
         inkscape:connector-curvature="0"
         id="path76"
         style="fill:#ffffff;fill-opacity:1;fill-rule:nonzero;stroke:#ffffff;stroke-width:1.00907552;stroke-linecap:butt;stroke-linejoin:miter;stroke-miterlimit:10;stroke-dasharray:none;stroke-opacity:1"
         d="m 301.19909,345.14573 h -73.332 v 190.92589 h 73.332 z" /><g
         transform="matrix(1,0,0,1.0182334,338.19899,488.55349)"
         id="g78"><path
           inkscape:connector-curvature="0"
           id="path80"
           style="fill:#ffffff;fill-opacity:1;fill-rule:nonzero;stroke:none"
           d="m 0,0 c 0,-25.773 -17.908,-46.667 -40,-46.667 -22.091,0 -40,20.894 -40,46.667 0,25.773 17.909,46.667 40,46.667 C -17.908,46.667 0,25.773 0,0" /></g><g
         transform="matrix(1,0,0,1.0182334,338.19899,488.55349)"
         id="g82"><path
           inkscape:connector-curvature="0"
           id="path84"
           style="fill:none;stroke:#ffffff;stroke-width:1;stroke-linecap:butt;stroke-linejoin:miter;stroke-miterlimit:10;stroke-dasharray:none;stroke-opacity:1"
           d="m 0,0 c 0,-25.773 -17.908,-46.667 -40,-46.667 -22.091,0 -40,20.894 -40,46.667 0,25.773 17.909,46.667 40,46.667 C -17.908,46.667 0,25.773 0,0 Z" /></g><g
         transform="matrix(1,0,0,1.0270685,357.533,393.07244)"
         id="g86"><path
           inkscape:connector-curvature="0"
           id="path88"
           style="fill:#ffffff;fill-opacity:1;fill-rule:nonzero;stroke:none"
           d="m 0,0 c 0,-26.223 -22.047,-47.48 -49.245,-47.48 -27.197,0 -49.245,21.257 -49.245,47.48 0,26.223 22.048,47.48 49.245,47.48 C -22.047,47.48 0,26.223 0,0" /></g><rect
         style="fill:#000000;fill-opacity:0;stroke:none;stroke-width:0.75"
         transform="scale(1,-1)"
         y="-538.44824"
         x="171.10088"
         height="220.3055"
         width="229.43132"
         id="rect126" /></g><rect
       style="fill:#000000;fill-opacity:0;stroke:none;stroke-width:0.75"
       id="rect933"
       width="343.14407"
       height="213.94069"
       x="149.33899"
       y="-574.70337"
       transform="scale(1,-1)" /><rect
       style="fill:#000000;fill-opacity:0;stroke:none;stroke-width:0.75"
       id="rect935"
       width="404.38986"
       height="294.48306"
       x="130.04237"
       y="-619.16949"
       transform="scale(1,-1)" /></g></svg>